<svg width="30" height="30" viewBox="0 0 30 30" fill="none" xmlns="http://www.w3.org/2000/svg">
<path d="M7.00004 4.00004C6.74416 4.00004 6.48801 4.09751 6.29301 4.29301L4.29301 6.29301C3.90201 6.68401 3.90201 7.31707 4.29301 7.70707L11.586 15L4.29301 22.293C3.90201 22.684 3.90201 23.3171 4.29301 23.7071L6.29301 25.7071C6.68401 26.0981 7.31707 26.0981 7.70707 25.7071L15 18.4141L22.293 25.7071C22.683 26.0981 23.3171 26.0981 23.7071 25.7071L25.7071 23.7071C26.0981 23.3161 26.0981 22.683 25.7071 22.293L18.4141 15L25.7071 7.70707C26.0981 7.31707 26.0981 6.68301 25.7071 6.29301L23.7071 4.29301C23.3161 3.90201 22.683 3.90201 22.293 4.29301L15 11.586L7.70707 4.29301C7.51157 4.09751 7.25591 4.00004 7.00004 4.00004Z" fill="#F5F5FF"/>
</svg>
